<svg xmlns="http://www.w3.org/2000/svg" viewBox="0 0 120 120">
  <defs>
    <linearGradient id="logoGradient" x1="0%" y1="0%" x2="100%" y2="100%">
      <stop offset="0%" stop-color="#fb923c" />
      <stop offset="100%" stop-color="#f97316" />
    </linearGradient>
  </defs>
  <circle cx="60" cy="60" r="56" fill="url(#logoGradient)" />
  <path d="M37 37c19 0 30 11 30 22 0 15-18 24-30 24s-30-9-30-24c0-11 11-22 30-22z" fill="#fff" opacity="0.95" />
  <path d="M42 57c6 0 8 4 8 8 0 6-4 10-8 10s-8-4-8-10c0-4 2-8 8-8z" fill="#f97316" />
  <path d="M60 82c10 0 18-6 18-16 0-12-12-16-18-16s-18 4-18 16c0 10 8 16 18 16z" fill="#fff" />
  <text x="50%" y="110" text-anchor="middle" font-family="Inter, Arial, sans-serif" font-size="12" fill="#fff" font-weight="700">Shyam Samiti</text>
</svg>
